<svg width="77" height="14" viewBox="0 0 77 14" fill="none" xmlns="http://www.w3.org/2000/svg">
<path d="M22.1239 0L16.3398 14H21.2563L21.9547 12.1471H27.4987L28.1971 14H33.1136L27.3295 0H22.1239ZM23.0782 8.78431L24.7267 4.41069L26.3752 8.78431H23.0782Z" fill="#767676"/>
<path d="M53.5748 8.68137H60.4433V5.31863H53.5748V3.43137H60.5156V0H48.8752V14H60.6602V10.5686H53.5748V8.68137Z" fill="#767676"/>
<path d="M38.9701 9.20569L35.4997 0H30.5833L36.3673 14H41.5729L47.357 0H42.4405L38.9701 9.20569Z" fill="#767676"/>
<path d="M10.0498 7.49275L4.55493 0H0V14H4.77183V6.50726L10.2667 14H14.8216V0H10.0498V7.49275Z" fill="#767676"/>
<path d="M73.2707 9.19745L73.7182 9.01971C75.4324 8.33892 76.3044 6.8648 76.3044 4.99471C76.3044 3.22618 75.6248 1.91814 74.2843 1.10627C73.0386 0.351373 71.4227 0 69.2001 0H62.9736V14H67.6009V10.0882H69.2638L72.0835 14H76.9999L73.2707 9.19745ZM70.0591 6.51961H67.5286V3.56863H70.0591C70.9173 3.56863 71.6135 4.22951 71.6135 5.04412C71.6135 5.85873 70.9173 6.51961 70.0591 6.51961Z" fill="#767676"/>
</svg>
